<svg width="25" height="25" viewBox="0 0 25 25" fill="none" xmlns="http://www.w3.org/2000/svg">
<path d="M25 12.5C25 5.5957 19.4043 0 12.5 0C5.5957 0 0 5.5957 0 12.5C0 18.7397 4.56836 23.9111 10.5479 24.8491V16.1162H7.37647V12.5H10.5479V9.74658C10.5479 6.61621 12.4106 4.88379 15.2671 4.88379C16.6367 4.88379 18.0684 5.13037 18.0684 5.13037V8.20557H16.4932C14.9385 8.20557 14.459 9.17139 14.459 10.1577V12.5H17.9248L17.3701 16.1162H14.459V24.8491C20.4316 23.9111 25 18.7397 25 12.5Z" fill="#1877F2"/>
<path d="M17.3623 16.1162L17.9175 12.5H14.4517V10.1577C14.4517 9.17139 14.938 8.20557 16.4858 8.20557H18.061V5.13037C18.061 5.13037 16.6294 4.88379 15.2598 4.88379C12.4038 4.88379 10.5405 6.6167 10.5405 9.74658V12.5H7.36914V16.1162H10.5405V24.8491C11.1777 24.9517 11.8281 25 12.4927 25C13.1572 25 13.8076 24.9453 14.4448 24.8491V16.1162H17.3623Z" fill="white"/>
</svg>
