<svg width="34" height="34" viewBox="0 0 34 34" fill="none" xmlns="http://www.w3.org/2000/svg">
<path d="M9.13444 11.29C9.57976 7.28212 12.9674 4.25 17 4.25V4.25C21.0326 4.25 24.4202 7.28212 24.8656 11.29L25.2223 14.5005C25.3068 15.2609 25.349 15.6412 25.4262 16.012C25.5571 16.6406 25.7632 17.2512 26.0401 17.8306C26.2034 18.1724 26.4003 18.5004 26.7939 19.1565L27.9326 21.0543C28.7384 22.3973 29.1412 23.0687 28.854 23.576C28.5668 24.0833 27.7837 24.0833 26.2176 24.0833H7.78238C6.21627 24.0833 5.43322 24.0833 5.14599 23.576C4.85876 23.0687 5.26164 22.3973 6.0674 21.0543L7.20609 19.1565C7.59975 18.5004 7.79658 18.1724 7.9599 17.8306C8.23677 17.2512 8.44287 16.6406 8.57377 16.012C8.65098 15.6412 8.69323 15.2609 8.77772 14.5005L9.13444 11.29Z" stroke="#33363F" stroke-width="2"/>
<path d="M11.3332 24.0833C11.3332 24.8275 11.4797 25.5644 11.7645 26.2519C12.0493 26.9394 12.4667 27.5641 12.9929 28.0903C13.5191 28.6165 14.1438 29.0339 14.8313 29.3187C15.5188 29.6034 16.2557 29.75 16.9998 29.75C17.744 29.75 18.4809 29.6034 19.1684 29.3187C19.8559 29.0339 20.4806 28.6165 21.0068 28.0903C21.533 27.5641 21.9504 26.9394 22.2352 26.2519C22.5199 25.5644 22.6665 24.8275 22.6665 24.0833" stroke="#33363F" stroke-width="2" stroke-linecap="round"/>
</svg>
