<svg width="36" height="36" viewBox="0 0 36 36" fill="none" xmlns="http://www.w3.org/2000/svg">
<path d="M6 13.5C6 9.25736 6 7.13604 7.31802 5.81802C8.63604 4.5 10.7574 4.5 15 4.5H21C25.2426 4.5 27.364 4.5 28.682 5.81802C30 7.13604 30 9.25736 30 13.5V23.7414C30 27.7663 30 29.7788 28.7336 30.3943C27.4671 31.0099 25.8847 29.7665 22.7198 27.2798L21.7069 26.484C19.9274 25.0858 19.0376 24.3867 18 24.3867C16.9624 24.3867 16.0726 25.0858 14.2931 26.484L13.2802 27.2798C10.1153 29.7665 8.53288 31.0099 7.26644 30.3943C6 29.7788 6 27.7663 6 23.7414V13.5Z" stroke="#33363F" stroke-width="2"/>
</svg>
