<svg width="16" height="15" viewBox="0 0 16 15" fill="none" xmlns="http://www.w3.org/2000/svg">
<g clip-path="url(#clip0_458_5415)">
<path d="M14.8761 13.4899H15.018L14.7461 13.0786C14.9123 13.0786 15.0005 12.973 15.0017 12.8436C15.0017 12.8386 15.0017 12.833 15.0011 12.828C15.0011 12.6518 14.8948 12.5674 14.6767 12.5674H14.3242V13.4899H14.4567V13.088H14.6198L14.8761 13.4899ZM14.6105 12.9836H14.4567V12.6718H14.6517C14.7523 12.6718 14.8673 12.688 14.8673 12.8199C14.8673 12.9711 14.7517 12.9836 14.6105 12.9836Z" fill="#B1B1B1"/>
<path d="M11.3069 11.9202H9.4275V8.97712C9.4275 8.27524 9.415 7.37212 8.45 7.37212C7.47125 7.37212 7.32125 8.13649 7.32125 8.92649V11.9202H5.4425V5.86774H7.24687V6.69462H7.27187C7.64 6.06587 8.32375 5.69024 9.05188 5.71712C10.9569 5.71712 11.3075 6.97024 11.3075 8.59962L11.3069 11.9202ZM3.32187 5.04024C2.71937 5.04024 2.23125 4.55212 2.23125 3.94962C2.23125 3.34712 2.71937 2.85899 3.32187 2.85899C3.92437 2.85899 4.4125 3.34712 4.4125 3.94962C4.4125 4.55212 3.92437 5.04024 3.32187 5.04024ZM4.26125 11.9202H2.38V5.86774H4.26125V11.9202ZM12.2438 1.11399H1.43562C0.925 1.10837 0.50625 1.51774 0.5 2.02837V12.8809C0.50625 13.3921 0.925 13.8015 1.43562 13.7959H12.2438C12.7556 13.8021 13.1762 13.3927 13.1831 12.8809V2.02774C13.1756 1.51587 12.755 1.10649 12.2438 1.11337" fill="#B1B1B1"/>
<path d="M14.6268 12.1565C14.1493 12.1609 13.7656 12.5521 13.7706 13.0296C13.7749 13.5071 14.1662 13.8909 14.6437 13.8859C15.1212 13.8815 15.5049 13.4902 15.4999 13.0127C15.4956 12.5415 15.1143 12.1609 14.6437 12.1565H14.6268ZM14.6468 13.7865C14.2281 13.7934 13.8631 13.4602 13.8562 13.0415C13.8493 12.6227 14.1831 12.2777 14.6018 12.2709C15.0206 12.264 15.3656 12.5977 15.3724 13.0165C15.3724 13.0209 15.3724 13.0246 15.3724 13.029C15.3812 13.4384 15.0562 13.7777 14.6468 13.7865H14.6274H14.6468Z" fill="#B1B1B1"/>
</g>
<defs>
<clipPath id="clip0_458_5415">
<rect width="15" height="15" fill="white" transform="translate(0.5)"/>
</clipPath>
</defs>
</svg>
