<svg width="20" height="20" viewBox="0 0 20 20" fill="none" xmlns="http://www.w3.org/2000/svg">
<g clip-path="url(#clip0_458_6869)">
<path d="M13.3319 17.5H17.1577C17.3458 17.4995 17.4981 17.3472 17.4985 17.1592V2.84082C17.4981 2.65277 17.3458 2.50043 17.1577 2.5H13.3319C12.6415 2.5 12.0819 1.94035 12.0819 1.25C12.0819 0.559648 12.6415 0 13.3319 0H17.1577C18.7259 0.00183594 19.9967 1.27266 19.9985 2.84082V17.1591C19.9967 18.7273 18.7259 19.9982 17.1577 20H13.3319C12.6415 20 12.0819 19.4404 12.0819 18.75C12.0819 18.0596 12.6415 17.5 13.3319 17.5Z" fill="#36373B"/>
<path d="M1.09703 7.34832L4.33203 4.11582C4.82035 3.62773 5.61188 3.62792 6.09996 4.11625C6.58805 4.60457 6.58785 5.39609 6.09953 5.88417L3.25621 8.72668L14.582 8.75C15.2724 8.75 15.832 9.30964 15.832 10C15.832 10.6903 15.2724 11.25 14.582 11.25L3.21035 11.2292L6.09953 14.1184C6.56992 14.6237 6.5416 15.4146 6.03633 15.885C5.55606 16.3321 4.81188 16.3317 4.33203 15.8842L1.09953 12.6517C-0.364962 11.1872 -0.364962 8.81285 1.09949 7.34839L1.09953 7.34835L1.09703 7.34832Z" fill="#36373B"/>
</g>
<defs>
<clipPath id="clip0_458_6869">
<rect width="20" height="20" fill="white" transform="matrix(-1 0 0 1 20 0)"/>
</clipPath>
</defs>
</svg>
