<svg width="26" height="26" viewBox="0 0 26 26" fill="none" xmlns="http://www.w3.org/2000/svg">
<path d="M5.30276 20.1095L6.02405 20.8022L5.30276 20.1095L1 24.5903V8.12262C1 6.68517 1.00072 5.66486 1.06335 4.86651C1.12516 4.0787 1.2426 3.59354 1.42959 3.21139C1.80661 2.44083 2.4044 1.82194 3.1305 1.43667C3.48394 1.24914 3.93511 1.12919 4.68289 1.06556C5.44358 1.00084 6.4177 1 7.8 1H18.2C19.5823 1 20.5564 1.00084 21.3171 1.06556C22.0649 1.12919 22.5161 1.24914 22.8695 1.43667C23.5956 1.82194 24.1934 2.44083 24.5704 3.21139C24.7574 3.59354 24.8748 4.0787 24.9366 4.86651C24.9993 5.66486 25 6.68517 25 8.12262V12.1839C25 13.6214 24.9993 14.6417 24.9366 15.44C24.8748 16.2278 24.7574 16.713 24.5704 17.0951C24.1934 17.8657 23.5956 18.4846 22.8695 18.8699C22.5161 19.0574 22.0649 19.1774 21.3171 19.241C20.5564 19.3057 19.5823 19.3065 18.2 19.3065H7.1731C6.46353 19.3065 5.79163 19.6005 5.30276 20.1095Z" stroke="#33363F" stroke-width="2" stroke-linecap="round" stroke-linejoin="round"/>
</svg>
