<svg width="25" height="25" viewBox="0 0 25 25" fill="none" xmlns="http://www.w3.org/2000/svg">
<g clip-path="url(#clip0_458_6862)">
<path d="M13 0C6.10729 0 0.5 5.60729 0.5 12.5C0.5 19.3927 6.10729 25 13 25C19.8927 25 25.5 19.3927 25.5 12.5C25.5 5.60729 19.8927 0 13 0ZM8.83333 22.0458V21.875C8.83333 19.5771 10.7021 17.7083 13 17.7083C15.2979 17.7083 17.1667 19.5771 17.1667 21.875V22.0458C15.8896 22.6052 14.4812 22.9167 13 22.9167C11.5187 22.9167 10.1104 22.6052 8.83333 22.0458ZM19.1719 20.8865C18.6969 17.9083 16.1104 15.625 13 15.625C9.88958 15.625 7.30417 17.9083 6.82812 20.8865C4.25521 18.9875 2.58333 15.9354 2.58333 12.5C2.58333 6.75625 7.25625 2.08333 13 2.08333C18.7437 2.08333 23.4167 6.75625 23.4167 12.5C23.4167 15.9354 21.7448 18.9875 19.1719 20.8865ZM13 5.20833C10.7021 5.20833 8.83333 7.07708 8.83333 9.375C8.83333 11.6729 10.7021 13.5417 13 13.5417C15.2979 13.5417 17.1667 11.6729 17.1667 9.375C17.1667 7.07708 15.2979 5.20833 13 5.20833ZM13 11.4583C11.851 11.4583 10.9167 10.524 10.9167 9.375C10.9167 8.22604 11.851 7.29167 13 7.29167C14.149 7.29167 15.0833 8.22604 15.0833 9.375C15.0833 10.524 14.149 11.4583 13 11.4583Z" fill="#36373B"/>
</g>
<defs>
<clipPath id="clip0_458_6862">
<rect width="25" height="25" fill="white"/>
</clipPath>
</defs>
</svg>
