<svg width="25" height="25" viewBox="0 0 25 25" fill="none" xmlns="http://www.w3.org/2000/svg">
<path d="M14.7251 3.50107L13.7301 3.60057V3.60057L14.7251 3.50107ZM14.545 2.58401L15.4116 2.08502V2.08502L14.545 2.58401ZM15.0747 5.12669L14.3225 5.7857L14.3225 5.7857L15.0747 5.12669ZM15.8926 5.46551L15.9585 6.46334L15.8926 5.46551ZM17.2894 4.56303L17.9227 5.33698L17.9613 5.3054L17.9966 5.27013L17.2894 4.56303ZM17.2895 4.56302L16.6562 3.78906L16.6176 3.82065L16.5823 3.85591L17.2895 4.56302ZM18.0657 4.04177L17.8059 3.07611L17.8059 3.07611L18.0657 4.04177ZM18.6801 4.07241L18.3255 5.00743V5.00743L18.6801 4.07241ZM19.4005 4.66824L18.6934 5.37534V5.37534L19.4005 4.66824ZM20.3309 5.59867L19.6238 6.30577L19.6238 6.30577L20.3309 5.59867ZM20.927 6.31943L19.9919 6.67386L19.9919 6.67386L20.927 6.31943ZM20.9576 6.93348L21.9233 7.1931L21.9233 7.1931L20.9576 6.93348ZM20.4362 7.71003L21.2102 8.34327V8.34327L20.4362 7.71003ZM19.5333 9.10764L20.5312 9.17311V9.17311L19.5333 9.10764ZM19.8719 9.925L20.5312 9.17312L20.5312 9.17311L19.8719 9.925ZM21.4985 10.2748L21.598 9.27979H21.598L21.4985 10.2748ZM22.416 10.4552L21.9168 11.3217L21.9168 11.3217L22.416 10.4552ZM22.8287 10.9111L23.7405 10.5006V10.5006L22.8287 10.9111ZM22.8288 14.0885L21.9168 13.6783L21.9168 13.6783L22.8288 14.0885ZM22.4157 14.545L21.9168 13.6783L21.9168 13.6783L22.4157 14.545ZM21.4988 14.7251L21.5983 15.7202H21.5983L21.4988 14.7251ZM19.874 15.0743L20.5327 15.8267L20.5327 15.8267L19.874 15.0743ZM19.5349 15.893L20.5327 15.8267V15.8267L19.5349 15.893ZM20.4367 17.2886L19.6627 17.9219L19.6627 17.9219L20.4367 17.2886ZM20.9574 18.0639L21.9229 17.8037V17.8037L20.9574 18.0639ZM20.9267 18.6792L19.9919 18.3241L19.9919 18.3241L20.9267 18.6792ZM18.6801 20.9256L18.3254 19.9906L18.3254 19.9906L18.6801 20.9256ZM18.0656 20.9562L17.8057 21.9219H17.8057L18.0656 20.9562ZM17.2895 20.4351L17.9228 19.6611L17.9228 19.6611L17.2895 20.4351ZM15.8927 19.5326L15.9584 18.5348H15.9584L15.8927 19.5326ZM15.0749 19.8714L15.8269 20.5305H15.8269L15.0749 19.8714ZM14.7252 21.4977L15.7202 21.5972L14.7252 21.4977ZM14.5448 22.4156L13.6784 21.9163V21.9163L14.5448 22.4156ZM14.0889 22.8282L13.6784 21.9163H13.6783L14.0889 22.8282ZM10.9112 22.8282L11.3217 21.9163L11.3217 21.9163L10.9112 22.8282ZM10.4551 22.4155L9.58862 22.9146L9.58863 22.9146L10.4551 22.4155ZM10.2748 21.498L9.2798 21.5975V21.5975L10.2748 21.498ZM9.92524 19.8719L10.6773 19.2129L9.92524 19.8719ZM9.10736 19.5332L9.17315 20.531H9.17315L9.10736 19.5332ZM7.71058 20.4356L8.34382 21.2095H8.34382L7.71058 20.4356ZM6.93463 20.9567L7.19452 21.9223L7.19453 21.9223L6.93463 20.9567ZM6.32004 20.926L5.96534 21.861L5.96534 21.861L6.32004 20.926ZM5.59978 20.3303L4.89268 21.0374H4.89268L5.59978 20.3303ZM4.66886 19.3994L5.37596 18.6923H5.37596L4.66886 19.3994ZM4.07338 18.6795L3.13847 19.0344L3.13847 19.0344L4.07338 18.6795ZM4.04271 18.0645L3.07713 17.8044L3.07713 17.8044L4.04271 18.0645ZM4.5636 17.2889L5.33755 17.9222L5.33755 17.9222L4.5636 17.2889ZM5.46568 15.8928L4.46787 15.8268V15.8268L5.46568 15.8928ZM5.12671 15.0745L5.78555 14.3222L5.78555 14.3222L5.12671 15.0745ZM3.50152 14.7251L3.60102 13.7301L3.55139 13.7251H3.50152V14.7251ZM3.50151 14.7251L3.402 15.7202L3.45163 15.7251H3.50151V14.7251ZM2.58457 14.545L2.08565 15.4116H2.08565L2.58457 14.545ZM2.17151 14.0886L3.0835 13.6783L3.0835 13.6783L2.17151 14.0886ZM2.17167 10.9111L3.0835 11.3217L3.0835 11.3217L2.17167 10.9111ZM2.58423 10.4552L2.08497 9.58875L2.08497 9.58875L2.58423 10.4552ZM3.50194 10.2748L3.60144 11.2699H3.60144L3.50194 10.2748ZM5.12869 9.92493L5.78804 10.6768L5.12869 9.92493ZM5.4672 9.1077L6.46506 9.0423L5.4672 9.1077ZM4.56414 7.70977L5.33809 7.07654L5.30651 7.03793L5.27124 7.00267L4.56414 7.70977ZM4.56413 7.70977L3.79018 8.34301L3.82176 8.38161L3.85703 8.41688L4.56413 7.70977ZM4.04249 6.93286L5.00824 6.67339V6.67339L4.04249 6.93286ZM4.0731 6.31911L5.00824 6.67339L4.0731 6.31911ZM4.66936 5.59806L5.37646 6.30517H5.37647L4.66936 5.59806ZM5.59968 4.66774L4.89257 3.96063L4.89257 3.96063L5.59968 4.66774ZM6.32004 4.07195L5.9654 3.13695L5.9654 3.13695L6.32004 4.07195ZM6.93452 4.0413L6.67468 5.00696H6.67468L6.93452 4.0413ZM7.71074 4.56258L8.35095 3.79433L8.34398 3.78862L7.71074 4.56258ZM7.71074 4.56259L7.07053 5.33084L7.07751 5.33654L7.71074 4.56259ZM9.10721 5.46495L9.17327 4.46714H9.17327L9.10721 5.46495ZM9.92555 5.12599L9.17327 4.46714L9.92555 5.12599ZM10.2749 3.50089L9.27985 3.40139L10.2749 3.50089ZM10.455 2.58414L9.5883 2.08527L9.5883 2.08527L10.455 2.58414ZM10.9115 2.17099L11.3217 3.08301L11.3217 3.08301L10.9115 2.17099ZM14.0886 2.17105L13.6783 3.08301L13.6784 3.08301L14.0886 2.17105ZM15.7202 3.40157C15.6973 3.17275 15.6753 2.94647 15.6418 2.75595C15.6062 2.55396 15.5465 2.31939 15.4116 2.08502L13.6783 3.08301C13.6505 3.03461 13.6566 3.01486 13.6721 3.10306C13.6897 3.20273 13.7042 3.34199 13.7301 3.60057L15.7202 3.40157ZM15.8268 4.46768C15.9035 4.55528 15.8791 4.60071 15.8379 4.3835C15.7986 4.17607 15.7682 3.88206 15.7202 3.40156L13.7301 3.60057C13.7744 4.04325 13.8133 4.44162 13.8729 4.756C13.9306 5.06059 14.0347 5.45724 14.3225 5.7857L15.8268 4.46768ZM15.8268 4.46768L15.8268 4.46768L14.3225 5.7857C14.7327 6.25384 15.3374 6.50433 15.9585 6.46334L15.8268 4.46768ZM16.6562 3.78907C16.2824 4.0949 16.053 4.28139 15.8785 4.40028C15.6957 4.5248 15.7106 4.47535 15.8268 4.46768L15.9585 6.46334C16.3943 6.43458 16.7484 6.22769 17.0046 6.05314C17.2691 5.87296 17.5783 5.61875 17.9227 5.33698L16.6562 3.78907ZM16.5823 3.85591L16.5823 3.85592L17.9966 5.27013L17.9966 5.27013L16.5823 3.85591ZM17.8059 3.07611C17.5446 3.1464 17.3365 3.27014 17.1684 3.38783C17.0099 3.49885 16.8343 3.64338 16.6562 3.78906L17.9227 5.33698C18.1239 5.17234 18.2328 5.08413 18.3157 5.02604C18.3891 4.97463 18.3794 4.99291 18.3255 5.00743L17.8059 3.07611ZM19.0347 3.1374C18.6417 2.98835 18.2117 2.96691 17.8059 3.07611L18.3255 5.00743L18.3255 5.00743L19.0347 3.1374ZM20.1076 3.96113C19.945 3.79848 19.7846 3.6372 19.6379 3.51098C19.4824 3.37715 19.2876 3.23333 19.0347 3.1374L18.3255 5.00743C18.2732 4.98762 18.2654 4.96847 18.3333 5.02691C18.4101 5.09295 18.5096 5.19153 18.6934 5.37534L20.1076 3.96113ZM21.038 4.89156L20.1076 3.96113L18.6934 5.37534L19.6238 6.30577L21.038 4.89156ZM21.8621 5.96501C21.7662 5.71193 21.6223 5.51705 21.4884 5.36146C21.3621 5.21472 21.2008 5.05429 21.038 4.89156L19.6238 6.30577C19.8077 6.48967 19.9063 6.58922 19.9724 6.666C20.0309 6.73393 20.0117 6.72612 19.9919 6.67386L21.8621 5.96501ZM21.9233 7.1931C22.0324 6.78747 22.011 6.35779 21.8621 5.965L19.9919 6.67386L19.9919 6.67386L21.9233 7.1931ZM21.2102 8.34327C21.3559 8.16513 21.5005 7.98944 21.6115 7.83085C21.7293 7.66271 21.8531 7.45448 21.9233 7.1931L19.9919 6.67386C20.0064 6.61988 20.0247 6.6102 19.9733 6.68363C19.9152 6.76661 19.8269 6.87549 19.6622 7.07679L21.2102 8.34327ZM20.5312 9.17311C20.5236 9.28941 20.4741 9.30424 20.5986 9.12139C20.7176 8.94678 20.9042 8.71727 21.2102 8.34327L19.6622 7.07679C19.3803 7.42136 19.126 7.73077 18.9457 7.9954C18.7711 8.25177 18.5641 8.60612 18.5355 9.04218L20.5312 9.17311ZM20.5312 9.17311V9.17311L18.5355 9.04217C18.4948 9.66271 18.745 10.2669 19.2126 10.6769L20.5312 9.17311ZM21.598 9.27979C21.1172 9.23171 20.823 9.20136 20.6154 9.16201C20.3981 9.12079 20.4436 9.09628 20.5312 9.17312L19.2126 10.6769C19.5412 10.965 19.938 11.0692 20.2428 11.127C20.5574 11.1866 20.956 11.2256 21.399 11.2699L21.598 9.27979ZM22.9153 9.5887C22.6808 9.45361 22.4461 9.39391 22.244 9.35828C22.0533 9.32468 21.8269 9.30269 21.598 9.27979L21.399 11.2699C21.6577 11.2957 21.797 11.3103 21.8968 11.3279C21.985 11.3435 21.9653 11.3496 21.9168 11.3217L22.9153 9.5887ZM23.7405 10.5006C23.5681 10.1175 23.2793 9.79844 22.9153 9.5887L21.9168 11.3217L21.9168 11.3217L23.7405 10.5006ZM23.9168 11.8421C23.9168 11.612 23.9175 11.3845 23.903 11.1915C23.8877 10.9869 23.8516 10.7474 23.7405 10.5006L21.9168 11.3217C21.8939 11.2707 21.9019 11.2516 21.9086 11.341C21.9162 11.442 21.9168 11.5821 21.9168 11.8421H23.9168ZM23.9168 13.1584V11.8421H21.9168V13.1584H23.9168ZM23.7409 14.4987C23.8517 14.2521 23.8877 14.0128 23.903 13.8084C23.9175 13.6155 23.9168 13.3882 23.9168 13.1584H21.9168C21.9168 13.4181 21.9162 13.5581 21.9086 13.659C21.9019 13.7483 21.8939 13.7293 21.9168 13.6783L23.7409 14.4987ZM22.9146 15.4117C23.2792 15.2018 23.5683 14.8823 23.7409 14.4987L21.9168 13.6783L21.9168 13.6783L22.9146 15.4117ZM21.5983 15.7202C21.8271 15.6973 22.0533 15.6753 22.2438 15.6418C22.4457 15.6062 22.6803 15.5466 22.9146 15.4117L21.9168 13.6783C21.9652 13.6505 21.985 13.6566 21.8968 13.6721C21.7971 13.6897 21.6578 13.7042 21.3993 13.7301L21.5983 15.7202ZM20.5327 15.8267C20.4451 15.9034 20.3997 15.879 20.6168 15.8378C20.8242 15.7985 21.1181 15.7682 21.5983 15.7202L21.3993 13.7301C20.9568 13.7743 20.5587 13.8132 20.2445 13.8728C19.9401 13.9304 19.5437 14.0344 19.2153 14.3219L20.5327 15.8267ZM20.5327 15.8267V15.8267L19.2153 14.3219C18.7465 14.7323 18.4957 15.3377 18.5371 15.9593L20.5327 15.8267ZM21.2106 16.6554C20.9051 16.2819 20.7188 16.0527 20.6 15.8784C20.4756 15.6958 20.5249 15.7106 20.5327 15.8267L18.5371 15.9593C18.566 16.3948 18.7727 16.7486 18.9472 17.0046C19.1272 17.2688 19.3812 17.5778 19.6627 17.9219L21.2106 16.6554ZM21.9229 17.8037C21.8526 17.5427 21.729 17.3348 21.6114 17.167C21.5005 17.0086 21.3561 16.8332 21.2106 16.6554L19.6627 17.9219C19.8272 18.1228 19.9153 18.2315 19.9733 18.3144C20.0246 18.3877 20.0064 18.378 19.9919 18.3241L21.9229 17.8037ZM21.8616 19.0342C22.011 18.6407 22.0325 18.2101 21.9229 17.8037L19.9919 18.3241V18.3241L21.8616 19.0342ZM21.0385 20.1059C21.201 19.9434 21.3621 19.7832 21.4882 19.6367C21.6219 19.4814 21.7656 19.2868 21.8616 19.0342L19.9919 18.3241C20.0117 18.272 20.0308 18.2642 19.9724 18.332C19.9064 18.4087 19.8079 18.508 19.6243 18.6917L21.0385 20.1059ZM20.1075 21.0369L21.0385 20.1059L19.6243 18.6917L18.6933 19.6227L20.1075 21.0369ZM19.0347 21.8606C19.2877 21.7646 19.4824 21.6208 19.6379 21.487C19.7845 21.3608 19.9449 21.1995 20.1075 21.0369L18.6933 19.6227C18.5095 19.8065 18.41 19.9051 18.3333 19.9711C18.2654 20.0295 18.2732 20.0104 18.3254 19.9906L19.0347 21.8606ZM17.8057 21.9219C18.2116 22.0311 18.6417 22.0097 19.0348 21.8606L18.3254 19.9906V19.9906L17.8057 21.9219ZM16.6563 21.209C16.8343 21.3547 17.0099 21.4992 17.1684 21.6102C17.3364 21.7279 17.5445 21.8516 17.8057 21.9219L18.3254 19.9906C18.3794 20.0051 18.389 20.0233 18.3157 19.972C18.2327 19.9139 18.1239 19.8257 17.9228 19.6611L16.6563 21.209ZM15.8269 20.5305C15.7107 20.5228 15.6959 20.4733 15.8786 20.5978C16.0531 20.7167 16.2825 20.9032 16.6563 21.209L17.9228 19.6611C17.5784 19.3794 17.2691 19.1251 17.0047 18.945C16.7484 18.7704 16.3942 18.5635 15.9584 18.5348L15.8269 20.5305ZM15.8269 20.5305L15.8269 20.5305L15.9584 18.5348C15.3375 18.4939 14.7329 18.7443 14.3228 19.2123L15.8269 20.5305ZM15.7202 21.5972C15.7683 21.1165 15.7987 20.8223 15.838 20.6147C15.8792 20.3974 15.9037 20.4428 15.8269 20.5305L14.3228 19.2123C14.0349 19.5408 13.9307 19.9376 13.873 20.2423C13.8134 20.5567 13.7745 20.9553 13.7302 21.3982L15.7202 21.5972ZM15.4112 22.9149C15.5464 22.6804 15.6061 22.4456 15.6417 22.2434C15.6753 22.0527 15.6973 21.8262 15.7202 21.5972L13.7302 21.3982C13.7043 21.657 13.6897 21.7964 13.6721 21.8962C13.6565 21.9846 13.6504 21.9648 13.6784 21.9163L15.4112 22.9149ZM14.4995 23.74C14.8825 23.5675 15.2015 23.2788 15.4112 22.9149L13.6784 21.9163H13.6784L14.4995 23.74ZM13.1578 23.9163C13.3879 23.9163 13.6155 23.917 13.8085 23.9025C14.0132 23.8872 14.2527 23.8511 14.4995 23.74L13.6783 21.9163C13.7293 21.8934 13.7484 21.9014 13.659 21.9081C13.558 21.9157 13.4179 21.9163 13.1578 21.9163V23.9163ZM11.842 23.9163H13.1578V21.9163H11.842V23.9163ZM10.5008 23.7401C10.7475 23.8512 10.9869 23.8872 11.1915 23.9025C11.3845 23.917 11.612 23.9163 11.842 23.9163V21.9163C11.582 21.9163 11.442 21.9157 11.341 21.9081C11.2517 21.9014 11.2707 21.8934 11.3217 21.9163L10.5008 23.7401ZM9.58863 22.9146C9.79839 23.2788 10.1175 23.5676 10.5008 23.7401L11.3217 21.9163L11.3217 21.9163L9.58863 22.9146ZM9.2798 21.5975C9.30269 21.8264 9.32468 22.0528 9.35827 22.2434C9.39389 22.4455 9.45357 22.6802 9.58862 22.9146L11.3217 21.9163C11.3496 21.9648 11.3435 21.9845 11.3279 21.8963C11.3103 21.7965 11.2957 21.6572 11.2699 21.3984L9.2798 21.5975ZM9.17315 20.531C9.09637 20.4434 9.12087 20.3979 9.16206 20.6152C9.20139 20.8227 9.23173 21.1168 9.2798 21.5975L11.2699 21.3985C11.2256 20.9556 11.1867 20.5572 11.1271 20.2427C11.0693 19.9381 10.9652 19.5414 10.6773 19.2129L9.17315 20.531ZM9.17315 20.531H9.17315L10.6773 19.2129C10.2672 18.7448 9.66255 18.4944 9.04158 18.5353L9.17315 20.531ZM8.34382 21.2095C8.71759 20.9037 8.94697 20.7173 9.12146 20.5984C9.30419 20.4739 9.28938 20.5233 9.17315 20.531L9.04158 18.5353C8.60577 18.5641 8.25164 18.7709 7.99541 18.9455C7.73094 19.1257 7.4217 19.3799 7.07734 19.6616L8.34382 21.2095ZM7.19453 21.9223C7.4557 21.852 7.66377 21.7283 7.83179 21.6106C7.99026 21.4997 8.16582 21.3552 8.34382 21.2095L7.07734 19.6616C6.87619 19.8262 6.7674 19.9144 6.68449 19.9724C6.61113 20.0238 6.62079 20.0056 6.67472 19.991L7.19453 21.9223ZM5.96534 21.861C6.35844 22.0101 6.78854 22.0316 7.19452 21.9223L6.67473 19.991H6.67473L5.96534 21.861ZM4.89268 21.0374C5.0553 21.2 5.21562 21.3613 5.36226 21.4875C5.51773 21.6213 5.71246 21.7651 5.96534 21.861L6.67473 19.991C6.72695 20.0109 6.73475 20.03 6.66686 19.9716C6.59014 19.9055 6.49066 19.807 6.30689 19.6232L4.89268 21.0374ZM3.96175 20.1065L4.89268 21.0374L6.30689 19.6232L5.37596 18.6923L3.96175 20.1065ZM3.13847 19.0344C3.23441 19.2871 3.37815 19.4817 3.51189 19.6371C3.63804 19.7837 3.7992 19.9439 3.96175 20.1065L5.37596 18.6923C5.19227 18.5086 5.09376 18.4092 5.02776 18.3325C4.96936 18.2646 4.98848 18.2724 5.0083 18.3246L3.13847 19.0344ZM3.07713 17.8044C2.96771 18.2107 2.98917 18.641 3.13847 19.0344L5.0083 18.3246L5.0083 18.3246L3.07713 17.8044ZM3.78964 16.6557C3.64408 16.8336 3.49966 17.0091 3.38872 17.1675C3.2711 17.3354 3.14744 17.5434 3.07713 17.8044L5.0083 18.3246C4.99378 18.3785 4.97552 18.3882 5.02688 18.3148C5.08493 18.232 5.17305 18.1232 5.33755 17.9222L3.78964 16.6557ZM4.46787 15.8268C4.47556 15.7106 4.52497 15.6958 4.40053 15.8784C4.2817 16.0528 4.09531 16.2821 3.78964 16.6557L5.33755 17.9222C5.61917 17.578 5.87326 17.2689 6.05336 17.0045C6.22785 16.7484 6.43466 16.3945 6.4635 15.9589L4.46787 15.8268ZM4.46787 15.8268H4.46787L6.4635 15.9589C6.50464 15.3375 6.25401 14.7325 5.78555 14.3222L4.46787 15.8268ZM3.40201 15.7202C3.88237 15.7682 4.17631 15.7985 4.38369 15.8378C4.60087 15.879 4.55547 15.9035 4.46787 15.8268L5.78555 14.3222C5.45714 14.0346 5.0606 13.9305 4.75612 13.8728C4.44183 13.8132 4.04358 13.7744 3.60102 13.7301L3.40201 15.7202ZM3.50151 15.7251H3.50152V13.7251H3.50151V15.7251ZM2.08565 15.4116C2.31999 15.5465 2.55453 15.6062 2.75648 15.6418C2.94696 15.6753 3.17322 15.6973 3.402 15.7202L3.60101 13.7301C3.34247 13.7042 3.20322 13.6897 3.10355 13.6721C3.01535 13.6566 3.0351 13.6505 3.0835 13.6783L2.08565 15.4116ZM1.25952 14.4988C1.43205 14.8824 1.72113 15.2018 2.08565 15.4116L3.0835 13.6783L3.0835 13.6783L1.25952 14.4988ZM1.0835 13.1583C1.0835 13.3882 1.08285 13.6155 1.09729 13.8084C1.11261 14.0129 1.1486 14.2522 1.25952 14.4988L3.0835 13.6783C3.1064 13.7293 3.09839 13.7483 3.0917 13.659C3.08415 13.5581 3.0835 13.4181 3.0835 13.1583H1.0835ZM1.0835 11.8422V13.1583H3.0835V11.8422H1.0835ZM1.25984 10.5005C1.14872 10.7473 1.11266 10.9868 1.09732 11.1915C1.08284 11.3845 1.0835 11.6121 1.0835 11.8422H3.0835C3.0835 11.5821 3.08415 11.442 3.09172 11.341C3.09842 11.2516 3.10644 11.2707 3.0835 11.3217L1.25984 10.5005ZM2.08497 9.58875C1.721 9.79848 1.43231 10.1175 1.25984 10.5005L3.0835 11.3217L3.0835 11.3217L2.08497 9.58875ZM3.40243 9.27978C3.17345 9.30268 2.947 9.32467 2.75635 9.35828C2.55421 9.39392 2.31947 9.45363 2.08497 9.58875L3.08349 11.3217C3.03507 11.3496 3.0153 11.3435 3.10356 11.3279C3.20331 11.3103 3.34267 11.2957 3.60144 11.2699L3.40243 9.27978ZM4.46934 9.17309C4.55696 9.09625 4.60246 9.12076 4.38509 9.16198C4.17752 9.20134 3.88329 9.2317 3.40243 9.27979L3.60144 11.2699C4.04445 11.2256 4.44312 11.1866 4.75772 11.127C5.06253 11.0692 5.45946 10.9649 5.78804 10.6768L4.46934 9.17309ZM4.46934 9.17309H4.46934L5.78804 10.6768C6.25551 10.2668 6.50572 9.66274 6.46506 9.0423L4.46934 9.17309ZM3.79018 8.34301C4.09625 8.7171 4.2829 8.94668 4.40187 9.12134C4.52648 9.30426 4.47696 9.28943 4.46934 9.17309L6.46506 9.0423C6.43647 8.60617 6.22946 8.25176 6.05479 7.99535C5.87449 7.73068 5.62009 7.4212 5.33809 7.07654L3.79018 8.34301ZM3.85703 8.41688L3.85703 8.41688L5.27124 7.00267L5.27124 7.00266L3.85703 8.41688ZM3.07674 7.19233C3.147 7.45383 3.27082 7.66216 3.38861 7.83036C3.4997 7.98902 3.64436 8.16479 3.79018 8.34301L5.33809 7.07653C5.17331 6.87514 5.08502 6.7662 5.02688 6.68317C4.97543 6.6097 4.99373 6.61937 5.00824 6.67339L3.07674 7.19233ZM3.13797 5.96483C2.98923 6.35743 2.96781 6.78688 3.07674 7.19233L5.00824 6.67339V6.67339L3.13797 5.96483ZM3.96225 4.89095C3.79946 5.05374 3.63805 5.21423 3.51173 5.36103C3.3778 5.51668 3.23389 5.71164 3.13796 5.96483L5.00824 6.67339C4.98844 6.72567 4.96927 6.73348 5.02775 6.66552C5.09384 6.58872 5.1925 6.48914 5.37646 6.30517L3.96225 4.89095ZM4.89257 3.96063L3.96225 4.89095L5.37647 6.30517L6.30679 5.37484L4.89257 3.96063ZM5.9654 3.13695C5.71248 3.23288 5.51772 3.37669 5.36222 3.51051C5.21556 3.63673 5.05522 3.79799 4.89257 3.96063L6.30679 5.37484C6.49059 5.19104 6.59008 5.09247 6.66681 5.02644C6.73471 4.96801 6.72691 4.98714 6.67468 5.00696L5.9654 3.13695ZM7.19436 3.07565C6.78844 2.96643 6.35843 2.98787 5.9654 3.13695L6.67468 5.00696L7.19436 3.07565ZM8.34398 3.78862C8.1659 3.64293 7.99028 3.4984 7.83177 3.38738C7.66373 3.2697 7.4556 3.14595 7.19436 3.07565L6.67468 5.00696C6.6207 4.99243 6.61104 4.97416 6.68446 5.02558C6.76742 5.08368 6.87627 5.1719 7.0775 5.33654L8.34398 3.78862ZM8.35093 3.79436L8.35092 3.79436L7.07055 5.3308L7.07056 5.33081L8.35093 3.79436ZM9.17327 4.46714C9.28949 4.47483 9.30429 4.52426 9.12153 4.39974C8.94705 4.28086 8.71769 4.09439 8.34398 3.78863L7.07751 5.33654C7.42182 5.61826 7.73099 5.8724 7.99538 6.05255C8.2515 6.22706 8.60551 6.43393 9.04114 6.46277L9.17327 4.46714ZM9.17327 4.46714V4.46714L9.04114 6.46277C9.66249 6.50391 10.2676 6.25328 10.6778 5.78484L9.17327 4.46714ZM9.27985 3.40139C9.23181 3.88171 9.20149 4.17562 9.16219 4.38298C9.12103 4.60013 9.09656 4.55473 9.17327 4.46714L10.6778 5.78484C10.9654 5.45643 11.0695 5.05991 11.1272 4.75543C11.1868 4.44115 11.2257 4.04292 11.2699 3.60039L9.27985 3.40139ZM9.5883 2.08527C9.45344 2.31958 9.39382 2.55407 9.35824 2.75599C9.32469 2.94644 9.30272 3.17265 9.27985 3.40139L11.2699 3.60039C11.2958 3.34191 11.3103 3.2027 11.3279 3.10305C11.3434 3.01488 11.3495 3.03462 11.3217 3.08301L9.5883 2.08527ZM10.5014 1.25897C10.1177 1.43152 9.79817 1.72067 9.5883 2.08527L11.3217 3.08301L11.3217 3.08301L10.5014 1.25897ZM11.8416 1.08301C11.6118 1.08301 11.3845 1.08236 11.1916 1.0968C10.9872 1.11211 10.7479 1.14809 10.5014 1.25898L11.3217 3.08301C11.2707 3.10591 11.2517 3.0979 11.341 3.09121C11.4419 3.08366 11.5818 3.08301 11.8416 3.08301V1.08301ZM13.1582 1.08301H11.8416V3.08301H13.1582V1.08301ZM14.4989 1.25909C14.2523 1.14814 14.0129 1.11213 13.8084 1.09681C13.6155 1.08236 13.3882 1.08301 13.1582 1.08301V3.08301C13.4181 3.08301 13.5581 3.08366 13.659 3.09122C13.7483 3.09791 13.7293 3.10592 13.6783 3.08301L14.4989 1.25909ZM15.4116 2.08502C15.2017 1.72062 14.8824 1.43162 14.4989 1.25909L13.6784 3.08301L13.6783 3.08301L15.4116 2.08502ZM15.6668 12.4997C15.6668 14.2486 14.2491 15.6663 12.5002 15.6663V17.6663C15.3536 17.6663 17.6668 15.3531 17.6668 12.4997H15.6668ZM12.5002 9.33301C14.2491 9.33301 15.6668 10.7508 15.6668 12.4997H17.6668C17.6668 9.6462 15.3536 7.33301 12.5002 7.33301V9.33301ZM9.3335 12.4997C9.3335 10.7508 10.7513 9.33301 12.5002 9.33301V7.33301C9.64669 7.33301 7.3335 9.6462 7.3335 12.4997H9.3335ZM12.5002 15.6663C10.7513 15.6663 9.3335 14.2486 9.3335 12.4997H7.3335C7.3335 15.3531 9.64669 17.6663 12.5002 17.6663V15.6663Z" fill="#33363F"/>
</svg>
