<svg width="16" height="15" viewBox="0 0 16 15" fill="none" xmlns="http://www.w3.org/2000/svg">
<path d="M8 0C3.85813 0 0.5 3.35813 0.5 7.5C0.5 11.6419 3.85813 15 8 15C12.1419 15 15.5 11.6419 15.5 7.5C15.5 3.35813 12.1419 0 8 0ZM12.3481 8.49938C12.365 8.6075 12.3737 8.71688 12.3737 8.82812C12.3737 10.5106 10.415 11.875 7.99875 11.875C5.5825 11.875 3.62375 10.5106 3.62375 8.82812C3.62375 8.71625 3.63313 8.60625 3.65 8.4975C3.26937 8.32625 3.00375 7.94438 3.00375 7.5C3.00375 6.89563 3.49312 6.40625 4.0975 6.40625C4.39125 6.40625 4.6575 6.5225 4.85375 6.71125C5.61125 6.16563 6.6575 5.81687 7.82188 5.78438L8.37812 3.16875C8.38875 3.11813 8.41937 3.07375 8.4625 3.04563C8.50562 3.0175 8.55875 3.0075 8.60938 3.01813L10.4269 3.40438C10.555 3.1475 10.8181 2.96875 11.125 2.96875C11.5562 2.96875 11.9062 3.31875 11.9062 3.75C11.9062 4.18125 11.5562 4.53125 11.125 4.53125C10.7063 4.53125 10.3669 4.20062 10.3475 3.78688L8.72 3.44063L8.22187 5.78438C9.36937 5.82438 10.3994 6.17312 11.1469 6.7125C11.3438 6.52312 11.6106 6.40562 11.9056 6.40562C12.51 6.40562 12.9994 6.895 12.9994 7.49937C12.9988 7.94625 12.7313 8.32938 12.3481 8.49938Z" fill="#B1B1B1"/>
</svg>
