<svg width="14" height="15" viewBox="0 0 14 15" fill="none" xmlns="http://www.w3.org/2000/svg">
<path d="M13.5404 6.16625C12.2036 6.16625 10.9642 5.73875 9.95295 5.0125V10.2531C9.95295 12.8706 7.82357 14.9994 5.2067 14.9994C4.19545 14.9994 3.25732 14.6806 2.4867 14.1394C1.26295 13.28 0.460449 11.8588 0.460449 10.2531C0.460449 7.63563 2.58982 5.50625 5.20732 5.50625C5.42482 5.50625 5.63732 5.52438 5.8467 5.5525V6.16313V8.185C5.6442 8.12188 5.43045 8.085 5.20732 8.085C4.01232 8.085 3.03982 9.0575 3.03982 10.2531C3.03982 11.0856 3.51232 11.8088 4.20232 12.1719C4.50295 12.33 4.84482 12.4206 5.20795 12.4206C6.37545 12.4206 7.32795 11.4919 7.3717 10.3344L7.37357 0H9.95232C9.95232 0.22375 9.9742 0.441875 10.0129 0.654375C10.1948 1.63688 10.7779 2.48 11.5861 3.00688C12.1486 3.37375 12.8198 3.58813 13.5398 3.58813L13.5404 6.16625Z" fill="#B1B1B1"/>
</svg>
