<svg width="16" height="13" viewBox="0 0 16 13" fill="none" xmlns="http://www.w3.org/2000/svg">
<path d="M13.9644 3.43997C13.9731 3.57184 13.9731 3.70434 13.9731 3.83747C13.9731 7.90434 10.8769 12.5937 5.21688 12.5937V12.5912C3.545 12.5937 1.9075 12.115 0.5 11.2118C0.743125 11.2412 0.9875 11.2556 1.2325 11.2562C2.61875 11.2575 3.965 10.7925 5.05438 9.93622C3.7375 9.91122 2.5825 9.05247 2.17938 7.79872C2.64062 7.88747 3.11562 7.86934 3.56875 7.74622C2.1325 7.45622 1.1 6.19434 1.1 4.72934C1.1 4.71622 1.1 4.70309 1.1 4.69059C1.52813 4.92934 2.00687 5.06122 2.49687 5.07559C1.14437 4.17247 0.726875 2.37372 1.54375 0.967469C3.10625 2.88997 5.41187 4.05872 7.88625 4.18309C7.63812 3.11434 7.9775 1.99434 8.77625 1.24247C10.0156 0.0768439 11.965 0.136844 13.1306 1.37622C13.82 1.24059 14.4806 0.987469 15.085 0.629344C14.855 1.34184 14.3744 1.94684 13.7319 2.33184C14.3425 2.25872 14.9381 2.09559 15.5 1.84684C15.0869 2.46497 14.5669 3.00434 13.9644 3.43997Z" fill="#B1B1B1"/>
</svg>
