<svg width="30" height="30" viewBox="0 0 30 30" fill="none" xmlns="http://www.w3.org/2000/svg">
<path d="M8.125 10.625L5.65746 12.27C5.18858 12.5826 4.95414 12.7389 4.78442 12.9454C4.63417 13.1282 4.52143 13.3389 4.45267 13.5653C4.375 13.821 4.375 14.1028 4.375 14.6663V20.245C4.375 21.2531 4.375 21.7571 4.57119 22.1422C4.74376 22.4809 5.01913 22.7562 5.35782 22.9288C5.74286 23.125 6.24691 23.125 7.255 23.125H22.745C23.7531 23.125 24.2571 23.125 24.6422 22.9288C24.9809 22.7562 25.2562 22.4809 25.4288 22.1422C25.625 21.7571 25.625 21.2531 25.625 20.245V14.6663C25.625 14.1028 25.625 13.821 25.5473 13.5653C25.4786 13.3389 25.3658 13.1282 25.2156 12.9454C25.0459 12.7389 24.8114 12.5826 24.3425 12.27L21.875 10.625" stroke="#222222" stroke-linecap="round"/>
<path d="M25.625 15.625H22.0665C21.3708 15.625 21.0229 15.625 20.761 15.8138C20.4992 16.0025 20.3892 16.3325 20.1692 16.9925L19.8308 18.0075C19.6108 18.6675 19.5008 18.9975 19.239 19.1862C18.9771 19.375 18.6292 19.375 17.9335 19.375H12.0665C11.3708 19.375 11.0229 19.375 10.761 19.1862C10.4992 18.9975 10.3892 18.6675 10.1692 18.0075L9.83085 16.9925C9.61084 16.3325 9.50084 16.0025 9.23895 15.8138C8.97706 15.625 8.6292 15.625 7.93348 15.625H4.375" stroke="#222222"/>
<path d="M11.875 6.875L15 3.75M15 3.75L18.125 6.875M15 3.75L15 12.5" stroke="#222222"/>
</svg>
