<svg width="16" height="11" viewBox="0 0 16 11" fill="none" xmlns="http://www.w3.org/2000/svg">
<path d="M15.1862 1.86582C15.0137 1.21645 14.5056 0.70457 13.86 0.53082C12.6906 0.21582 8 0.21582 8 0.21582C8 0.21582 3.30937 0.21582 2.13937 0.53082C1.49437 0.70457 0.98625 1.21582 0.81375 1.86582C0.5 3.04332 0.5 5.49957 0.5 5.49957C0.5 5.49957 0.5 7.95582 0.81375 9.13332C0.98625 9.78269 1.49438 10.2946 2.14 10.4683C3.30938 10.7833 8 10.7833 8 10.7833C8 10.7833 12.6906 10.7833 13.8606 10.4683C14.5056 10.2946 15.0138 9.78332 15.1869 9.13332C15.5 7.95582 15.5 5.49957 15.5 5.49957C15.5 5.49957 15.5 3.04332 15.1862 1.86582ZM6.46625 7.7302V3.26895L10.3862 5.49957L6.46625 7.7302Z" fill="#B1B1B1"/>
</svg>
